# xmcd
#
# Track frame offsets: 
#        150
#        10645
#        29783
#        43770
#        53120
#        70095
#        88645
#        104058
#        127420
#        144320
#        157845
#        178445
#        194258
#        215783
#        226258
#        240845
#        268420
#
# Disc length: 3820 seconds
#
# Revision: 2
# Processed by: cddbd v1.5.2PL0 Copyright (c) Steve Scherf et al.
# Submitted via: ExactAudioCopy v0.99pb5
#
DISCID=fc0eea11
DTITLE=Various Artist - Singers and Songwriters - Last Goodbye
DYEAR=2003
DGENRE=Pop
TTITLE0=Byrds - Mr. Tambourine man
TTITLE1=Kris Kristofferson - Me and Bobby McGee
TTITLE2=Roger McGuinn - The water is wide
TTITLE3=Bill Withers - Ain't no sunshine
TTITLE4=Chi Coltrane - You were my friend
TTITLE5=Dave Loggins - Please come to Boston
TTITLE6=Randy Meisner - Deep inside my heart
TTITLE7=Boz Scaggs - Lowdown
TTITLE8=J.D. Souther - You're only lonely
TTITLE9=Dave Mason - We just disagree
TTITLE10=Jeff Buckley - Last goodbye
TTITLE11=Steve Forbert - Romeo's tune
TTITLE12=Michael Murphey - Wildfire
TTITLE13=Willie Nelson - Blue eyes crying in the rain
TTITLE14=Rosanne Cash - Seven year ache
TTITLE15=It's A Beautiful Day - White bird
TTITLE16=Mary Chapin Carpenter - He thinks he'll keep her
EXTD=
EXTT0=
EXTT1=
EXTT2=
EXTT3=
EXTT4=
EXTT5=
EXTT6=
EXTT7=
EXTT8=
EXTT9=
EXTT10=
EXTT11=
EXTT12=
EXTT13=
EXTT14=
EXTT15=
EXTT16=
PLAYORDER=
